<?xml version="1.0" encoding="UTF-8" standalone="no"?>
<!-- Created with Inkscape (http://www.inkscape.org/) -->

<svg
   width="28.100349mm"
   height="44.942215mm"
   viewBox="0 0 28.100349 44.942215"
   version="1.1"
   id="svg603"
   xmlns:inkscape="http://www.inkscape.org/namespaces/inkscape"
   xmlns:sodipodi="http://sodipodi.sourceforge.net/DTD/sodipodi-0.dtd"
   xmlns="http://www.w3.org/2000/svg"
   xmlns:svg="http://www.w3.org/2000/svg">
  <sodipodi:namedview
     id="namedview605"
     pagecolor="#ffffff"
     bordercolor="#000000"
     borderopacity="0.25"
     inkscape:showpageshadow="2"
     inkscape:pageopacity="0.0"
     inkscape:pagecheckerboard="0"
     inkscape:deskcolor="#d1d1d1"
     inkscape:document-units="mm"
     showgrid="false" />
  <defs
     id="defs600" />
  <g
     inkscape:groupmode="layer"
     id="g788"
     inkscape:label="Layer 3 copy"
     transform="translate(-65.024002,-213.34017)"
     style="display:inline;opacity:1;fill:#000000">
    <path
       style="opacity:1;fill:#000000;stroke-width:0.264583"
       d="m 70.825222,236.56251 c -2.168217,1.05479 -4.188183,3.4416 -3.417392,5.9885 0.392047,2.16378 1.97956,3.81764 3.663239,5.06975 2.368554,1.32765 3.460832,-1.89228 3.484941,-3.71621 -0.03637,-2.03397 1.177175,-4.67997 -1.035803,-6.02725 -0.820924,-0.39909 -2.221565,-1.59557 -3.104387,-1.1324"
       id="path764"
       inkscape:export-filename="path764.svg"
       inkscape:export-xdpi="289.36713"
       inkscape:export-ydpi="289.36713" />
    <path
       style="opacity:1;fill:#000000;stroke-width:0.264583"
       d="m 78.969792,230.76439 c -0.439522,-2.23728 -3.3208,-3.86797 -4.606307,-1.34901 -0.512851,1.36571 -0.324205,2.93301 -1.390388,4.01822 0.234524,1.43494 2.389661,2.95633 0.379886,4.15012 -0.620012,2.29706 3.466224,1.10005 2.629455,-0.91969 -0.0079,-0.94291 -0.02566,-4.41674 1.381961,-3.32841 1.767398,1.87068 1.415979,-1.74213 1.605393,-2.57123 z"
       id="path766" />
    <path
       style="opacity:1;fill:#000000;stroke-width:0.264583"
       d="m 76.248079,228.3294 c -0.785565,-1.70181 -1.862697,-4.49832 0.473425,-5.49648 1.86108,-1.49267 4.339535,-1.53027 6.313582,-0.32222 0.938197,0.26053 3.26239,0.63814 1.485673,1.54408 -1.101642,1.98926 -3.142508,2.84066 -5.263967,3.27496 -1.055727,-0.24209 -2.512884,2.16066 -3.008713,0.99966 z"
       id="path768" />
    <path
       style="opacity:1;fill:#000000;stroke-width:0.264583"
       d="m 74.655576,230.36557 c -1.695968,-0.96769 -2.351389,-4.31413 0.470355,-3.90061 3.232042,0.28321 6.494913,1.00546 9.742263,0.42946 -1.043534,0.82789 -2.89526,0.93805 -4.322437,0.94319 -2.02946,-0.0483 -4.053368,-0.42363 -6.085787,-0.23517 0.24897,0.68125 1.682706,2.67028 0.195606,2.76313 z"
       id="path770" />
    <path
       style="opacity:1;fill:#000000;stroke-width:0.264583"
       d="m 74.335351,231.00033 c -1.189467,-0.31813 -2.017957,-1.51668 -0.404277,-1.81047 1.930061,-1.47324 4.751254,-1.15368 6.405811,0.57979 0.61087,0.5171 2.410069,2.28876 1.894699,2.27373 -1.845255,-0.88594 -3.552786,-3.37269 -5.778554,-2.53054 -0.573755,0.30583 -2.158262,0.66158 -1.850137,1.53491"
       id="path772" />
    <path
       style="opacity:1;fill:#000000;stroke-width:0.264583"
       d="m 75.764662,232.35141 c 1.209154,0.66701 1.723375,4.08992 3.231441,2.50544 1.967841,-0.22672 3.29443,1.78357 5.056332,2.39811 0.978765,0.44146 1.784429,1.38295 0.160011,0.617 -1.968923,-0.80003 -3.809539,-2.77208 -5.803836,-1.61295 -1.460267,-0.59152 -2.931432,-2.23268 -2.643948,-3.9076 z"
       id="path774" />
    <path
       style="opacity:1;fill:#000000;stroke-width:0.264583"
       d="m 74.887592,236.90167 c -1.917422,-0.32208 -3.853855,0.26476 -5.772192,0.25436 -1.491217,-0.25589 -4.84297,-0.58369 -3.939091,1.88189 0.61606,2.17549 2.0425,4.0228 2.582454,6.23432 0.829249,2.60462 1.04477,5.36157 1.00077,8.08165 0.629756,-4.77363 -1.006787,-9.49732 -2.722875,-13.87638 0.0452,-2.2779 3.459744,-1.82378 5.079765,-1.67024 1.304471,0.10809 2.729307,-0.0323 3.771169,-0.9056 z"
       id="path776" />
    <path
       style="opacity:1;fill:#000000;stroke-width:0.264583"
       d="m 69.152229,241.30834 c 0.391197,3.43308 2.617777,6.26546 3.869769,9.40897 1.015028,2.38376 1.137204,5.01003 1.063302,7.56508 1.526131,-3.40516 0.07412,-7.24139 -1.599023,-10.30132 -1.273787,-1.91845 -0.534522,-4.4519 -1.828183,-6.3388 -0.14808,-0.32124 -1.497493,-1.03069 -1.505865,-0.33393 z"
       id="path778" />
    <path
       style="opacity:1;fill:#000000;stroke-width:0.264583"
       d="m 75.414861,234.48787 c 0.795088,1.36567 2.486511,2.74807 2.984373,3.90283 -0.179696,-1.96031 -1.807572,-3.1226 -3.205065,-4.24075"
       id="path780" />
    <path
       style="opacity:1;fill:#000000;stroke-width:0.264583"
       d="m 80.514559,221.92376 c -1.032533,-2.09445 0.635826,-4.11166 2.450854,-4.96988 1.878434,-1.42954 3.875228,-2.93041 6.213076,-3.45758 0.908726,-0.23382 3.700724,-0.2427 3.562732,0.23594 -3.367334,-0.43329 -6.626565,1.34795 -8.968943,3.63041 -1.182372,1.22847 -3.767468,1.96944 -2.837948,4.09743 0.108796,0.30334 -0.07121,0.7052 -0.419771,0.46368 z"
       id="path782" />
    <path
       style="opacity:1;fill:#000000;stroke-width:0.264583"
       d="m 81.130803,221.92892 c -0.835221,-2.37135 2.106243,-3.35711 3.476087,-4.62767 2.128161,-1.72047 4.567016,-3.21569 7.268436,-3.78641 0.877409,-0.14909 2.039118,0.0627 0.49041,0.17998 -2.514323,0.23537 -4.366083,2.02407 -6.445216,3.24162 -1.576789,1.02189 -3.294651,2.05113 -4.428735,3.54299 -0.242644,0.29209 0.123491,1.57117 -0.360982,1.44949 z"
       id="path784" />
    <path
       style="opacity:1;fill:#000000;stroke-width:0.264583"
       d="m 75.157557,235.68483 c -1.176639,0.024 -2.740795,0.36274 -1.484599,1.73964 0.892442,1.9227 1.171286,4.00696 1.174422,6.10264 0.491331,-1.1427 -0.888627,-4.01838 -0.857428,-5.83041 -0.118491,-0.92717 0.211795,-1.72585 1.167605,-2.01187 z"
       id="path786" />
  </g>
</svg>
